<?xml version="1.0" encoding="UTF-8" standalone="no"?>
<!DOCTYPE svg PUBLIC "-//W3C//DTD SVG 1.1//EN"
 "http://www.w3.org/Graphics/SVG/1.1/DTD/svg11.dtd">
<!-- Generated by graphviz version 2.43.0 (0)
 -->
<!-- Title: pastafarianism Pages: 1 -->
<svg width="433pt" height="116pt"
 viewBox="0.00 0.00 433.09 116.00" xmlns="http://www.w3.org/2000/svg" xmlns:xlink="http://www.w3.org/1999/xlink">
<g id="graph0" class="graph" transform="scale(1 1) rotate(0) translate(4 112)">
<title>pastafarianism</title>
<polygon fill="white" stroke="transparent" points="-4,4 -4,-112 429.09,-112 429.09,4 -4,4"/>
<!-- pick_seq -->
<g id="node1" class="node">
<title>pick_seq</title>
<polygon fill="orange" stroke="black" points="249.18,-108 181.18,-108 181.18,-72 249.18,-72 249.18,-108"/>
<text text-anchor="middle" x="215.18" y="-87.8" font-family="Times,serif" font-size="9.00">Ⓜ pick_seq</text>
</g>
<!-- set_goal -->
<g id="node2" class="node">
<title>set_goal</title>
<ellipse fill="gray" stroke="black" cx="31.18" cy="-18" rx="31.35" ry="18"/>
<text text-anchor="middle" x="31.18" y="-15.8" font-family="Times,serif" font-size="9.00">set_goal</text>
</g>
<!-- pick_seq&#45;&gt;set_goal -->
<g id="edge1" class="edge">
<title>pick_seq&#45;&gt;set_goal</title>
<path fill="none" stroke="black" d="M180.96,-76.94C151.67,-66.49 108.45,-50.77 71.18,-36 69.13,-35.19 67.02,-34.34 64.9,-33.47"/>
<polygon fill="black" stroke="black" points="66.21,-30.23 55.64,-29.62 63.53,-36.69 66.21,-30.23"/>
</g>
<!-- move_base -->
<g id="node3" class="node">
<title>move_base</title>
<ellipse fill="gray" stroke="black" cx="118.18" cy="-18" rx="38.21" ry="18"/>
<text text-anchor="middle" x="118.18" y="-15.8" font-family="Times,serif" font-size="9.00">move_base</text>
</g>
<!-- pick_seq&#45;&gt;move_base -->
<g id="edge2" class="edge">
<title>pick_seq&#45;&gt;move_base</title>
<path fill="none" stroke="black" d="M191.2,-71.7C177.73,-61.97 160.83,-49.78 146.68,-39.57"/>
<polygon fill="black" stroke="black" points="148.44,-36.52 138.28,-33.51 144.34,-42.2 148.44,-36.52"/>
</g>
<!-- move_down -->
<g id="node4" class="node">
<title>move_down</title>
<ellipse fill="gray" stroke="black" cx="215.18" cy="-18" rx="40.33" ry="18"/>
<text text-anchor="middle" x="215.18" y="-15.8" font-family="Times,serif" font-size="9.00">move_down</text>
</g>
<!-- pick_seq&#45;&gt;move_down -->
<g id="edge3" class="edge">
<title>pick_seq&#45;&gt;move_down</title>
<path fill="none" stroke="black" d="M215.18,-71.7C215.18,-63.98 215.18,-54.71 215.18,-46.11"/>
<polygon fill="black" stroke="black" points="218.68,-46.1 215.18,-36.1 211.68,-46.1 218.68,-46.1"/>
</g>
<!-- grab_box -->
<g id="node5" class="node">
<title>grab_box</title>
<ellipse fill="gray" stroke="black" cx="307.18" cy="-18" rx="34.13" ry="18"/>
<text text-anchor="middle" x="307.18" y="-15.8" font-family="Times,serif" font-size="9.00">grab_box</text>
</g>
<!-- pick_seq&#45;&gt;grab_box -->
<g id="edge4" class="edge">
<title>pick_seq&#45;&gt;grab_box</title>
<path fill="none" stroke="black" d="M237.92,-71.7C250.79,-61.91 266.95,-49.61 280.42,-39.36"/>
<polygon fill="black" stroke="black" points="282.57,-42.12 288.41,-33.28 278.33,-36.55 282.57,-42.12"/>
</g>
<!-- move_up -->
<g id="node6" class="node">
<title>move_up</title>
<ellipse fill="gray" stroke="black" cx="392.18" cy="-18" rx="32.82" ry="18"/>
<text text-anchor="middle" x="392.18" y="-15.8" font-family="Times,serif" font-size="9.00">move_up</text>
</g>
<!-- pick_seq&#45;&gt;move_up -->
<g id="edge5" class="edge">
<title>pick_seq&#45;&gt;move_up</title>
<path fill="none" stroke="black" d="M249.34,-75.7C276.65,-65.04 315.91,-49.66 350.18,-36 352.4,-35.12 354.68,-34.2 356.98,-33.28"/>
<polygon fill="black" stroke="black" points="358.46,-36.45 366.43,-29.47 355.85,-29.96 358.46,-36.45"/>
</g>
</g>
</svg>
